<mxfile host="65bd71144e">
    <diagram name="Page-1" id="ffrCedS6Av5aOX2267lV">
        <mxGraphModel dx="2205" dy="1689" grid="1" gridSize="10" guides="1" tooltips="1" connect="1" arrows="1" fold="1" page="1" pageScale="1" pageWidth="850" pageHeight="1100" math="0" shadow="0">
            <root>
                <mxCell id="0"/>
                <mxCell id="1" parent="0"/>
                <mxCell id="ne0xaH8l7VcgD0dj2SvG-1" value="User" style="swimlane;childLayout=stackLayout;horizontal=1;startSize=30;horizontalStack=0;rounded=1;fontSize=14;fontStyle=0;strokeWidth=2;resizeParent=0;resizeLast=1;shadow=0;dashed=0;align=center;" parent="1" vertex="1">
                    <mxGeometry x="-40" y="100" width="160" height="120" as="geometry"/>
                </mxCell>
                <mxCell id="ne0xaH8l7VcgD0dj2SvG-2" value="firstname&#10;lastname&#10;email&#10;password&#10;avatar" style="align=left;strokeColor=none;fillColor=none;spacingLeft=4;fontSize=12;verticalAlign=top;resizable=0;rotatable=0;part=1;" parent="ne0xaH8l7VcgD0dj2SvG-1" vertex="1">
                    <mxGeometry y="30" width="160" height="90" as="geometry"/>
                </mxCell>
                <mxCell id="ne0xaH8l7VcgD0dj2SvG-3" value="Product" style="swimlane;childLayout=stackLayout;horizontal=1;startSize=30;horizontalStack=0;rounded=1;fontSize=14;fontStyle=0;strokeWidth=2;resizeParent=0;resizeLast=1;shadow=0;dashed=0;align=center;" parent="1" vertex="1">
                    <mxGeometry x="320" y="60" width="160" height="160" as="geometry"/>
                </mxCell>
                <mxCell id="ne0xaH8l7VcgD0dj2SvG-4" value="title&#10;code&#10;cover_img&#10;current_price&#10;qunatity&#10;avg_rating&#10;subcategoryname&#10;categoryId" style="align=left;strokeColor=none;fillColor=none;spacingLeft=4;fontSize=12;verticalAlign=top;resizable=0;rotatable=0;part=1;" parent="ne0xaH8l7VcgD0dj2SvG-3" vertex="1">
                    <mxGeometry y="30" width="160" height="130" as="geometry"/>
                </mxCell>
                <mxCell id="ne0xaH8l7VcgD0dj2SvG-6" value="Product_colors" style="swimlane;childLayout=stackLayout;horizontal=1;startSize=30;horizontalStack=0;rounded=1;fontSize=14;fontStyle=0;strokeWidth=2;resizeParent=0;resizeLast=1;shadow=0;dashed=0;align=center;" parent="1" vertex="1">
                    <mxGeometry x="670" y="80" width="160" height="120" as="geometry"/>
                </mxCell>
                <mxCell id="ne0xaH8l7VcgD0dj2SvG-7" value="product_id --pk&#10;color --pk&#10;" style="align=left;strokeColor=none;fillColor=none;spacingLeft=4;fontSize=12;verticalAlign=top;resizable=0;rotatable=0;part=1;" parent="ne0xaH8l7VcgD0dj2SvG-6" vertex="1">
                    <mxGeometry y="30" width="160" height="90" as="geometry"/>
                </mxCell>
                <mxCell id="ne0xaH8l7VcgD0dj2SvG-9" value="" style="edgeStyle=orthogonalEdgeStyle;rounded=0;orthogonalLoop=1;jettySize=auto;html=1;" parent="1" source="ne0xaH8l7VcgD0dj2SvG-4" target="ne0xaH8l7VcgD0dj2SvG-7" edge="1">
                    <mxGeometry relative="1" as="geometry"/>
                </mxCell>
                <mxCell id="ne0xaH8l7VcgD0dj2SvG-11" value="Products_colors_sizes" style="swimlane;childLayout=stackLayout;horizontal=1;startSize=30;horizontalStack=0;rounded=1;fontSize=14;fontStyle=0;strokeWidth=2;resizeParent=0;resizeLast=1;shadow=0;dashed=0;align=center;" parent="1" vertex="1">
                    <mxGeometry x="670" y="340" width="160" height="120" as="geometry"/>
                </mxCell>
                <mxCell id="ne0xaH8l7VcgD0dj2SvG-12" value="product  -pk&#10;color  -pk&#10;size  -pk&#10;quantity" style="align=left;strokeColor=none;fillColor=none;spacingLeft=4;fontSize=12;verticalAlign=top;resizable=0;rotatable=0;part=1;" parent="ne0xaH8l7VcgD0dj2SvG-11" vertex="1">
                    <mxGeometry y="30" width="160" height="90" as="geometry"/>
                </mxCell>
                <mxCell id="ne0xaH8l7VcgD0dj2SvG-15" value="Categorie" style="swimlane;childLayout=stackLayout;horizontal=1;startSize=30;horizontalStack=0;rounded=1;fontSize=14;fontStyle=0;strokeWidth=2;resizeParent=0;resizeLast=1;shadow=0;dashed=0;align=center;" parent="1" vertex="1">
                    <mxGeometry x="250" y="-280" width="160" height="120" as="geometry"/>
                </mxCell>
                <mxCell id="ne0xaH8l7VcgD0dj2SvG-16" value="id&#10;title&#10;description&#10;img" style="align=left;strokeColor=none;fillColor=none;spacingLeft=4;fontSize=12;verticalAlign=top;resizable=0;rotatable=0;part=1;" parent="ne0xaH8l7VcgD0dj2SvG-15" vertex="1">
                    <mxGeometry y="30" width="160" height="90" as="geometry"/>
                </mxCell>
                <mxCell id="ne0xaH8l7VcgD0dj2SvG-19" style="edgeStyle=orthogonalEdgeStyle;rounded=0;orthogonalLoop=1;jettySize=auto;html=1;entryX=0.438;entryY=-0.008;entryDx=0;entryDy=0;entryPerimeter=0;" parent="1" source="ne0xaH8l7VcgD0dj2SvG-7" target="ne0xaH8l7VcgD0dj2SvG-11" edge="1">
                    <mxGeometry relative="1" as="geometry"/>
                </mxCell>
                <mxCell id="ne0xaH8l7VcgD0dj2SvG-21" value="cart" style="swimlane;childLayout=stackLayout;horizontal=1;startSize=30;horizontalStack=0;rounded=1;fontSize=14;fontStyle=0;strokeWidth=2;resizeParent=0;resizeLast=1;shadow=0;dashed=0;align=center;" parent="1" vertex="1">
                    <mxGeometry x="90" y="420" width="160" height="120" as="geometry"/>
                </mxCell>
                <mxCell id="ne0xaH8l7VcgD0dj2SvG-22" value="customer --pk&#10;product --pk&#10;quantity&#10;" style="align=left;strokeColor=none;fillColor=none;spacingLeft=4;fontSize=12;verticalAlign=top;resizable=0;rotatable=0;part=1;" parent="ne0xaH8l7VcgD0dj2SvG-21" vertex="1">
                    <mxGeometry y="30" width="160" height="90" as="geometry"/>
                </mxCell>
                <mxCell id="pdZs4WxcZeSt5Cbc3wFs-1" value="Admin" style="swimlane;childLayout=stackLayout;horizontal=1;startSize=30;horizontalStack=0;rounded=1;fontSize=14;fontStyle=0;strokeWidth=2;resizeParent=0;resizeLast=1;shadow=0;dashed=0;align=center;" parent="1" vertex="1">
                    <mxGeometry x="-140" y="-100" width="160" height="120" as="geometry"/>
                </mxCell>
                <mxCell id="pdZs4WxcZeSt5Cbc3wFs-2" value="userId&#10;role=&quot;admin&quot;" style="align=left;strokeColor=none;fillColor=none;spacingLeft=4;fontSize=12;verticalAlign=top;resizable=0;rotatable=0;part=1;" parent="pdZs4WxcZeSt5Cbc3wFs-1" vertex="1">
                    <mxGeometry y="30" width="160" height="90" as="geometry"/>
                </mxCell>
                <mxCell id="pdZs4WxcZeSt5Cbc3wFs-4" value="Customer" style="swimlane;childLayout=stackLayout;horizontal=1;startSize=30;horizontalStack=0;rounded=1;fontSize=14;fontStyle=0;strokeWidth=2;resizeParent=0;resizeLast=1;shadow=0;dashed=0;align=center;" parent="1" vertex="1">
                    <mxGeometry x="90" y="-100" width="160" height="120" as="geometry"/>
                </mxCell>
                <mxCell id="pdZs4WxcZeSt5Cbc3wFs-5" value="userId&#10;city&#10;address&#10;" style="align=left;strokeColor=none;fillColor=none;spacingLeft=4;fontSize=12;verticalAlign=top;resizable=0;rotatable=0;part=1;" parent="pdZs4WxcZeSt5Cbc3wFs-4" vertex="1">
                    <mxGeometry y="30" width="160" height="90" as="geometry"/>
                </mxCell>
                <mxCell id="pdZs4WxcZeSt5Cbc3wFs-6" value="subcategory" style="swimlane;childLayout=stackLayout;horizontal=1;startSize=30;horizontalStack=0;rounded=1;fontSize=14;fontStyle=0;strokeWidth=2;resizeParent=0;resizeLast=1;shadow=0;dashed=0;align=center;" parent="1" vertex="1">
                    <mxGeometry x="500" y="-170" width="160" height="120" as="geometry"/>
                </mxCell>
                <mxCell id="6" value="categoryId -pk&lt;br&gt;name -pk&lt;br&gt;desc&lt;br&gt;img" style="text;html=1;align=left;verticalAlign=middle;resizable=0;points=[];autosize=1;strokeColor=none;fillColor=none;" vertex="1" parent="pdZs4WxcZeSt5Cbc3wFs-6">
                    <mxGeometry y="30" width="160" height="90" as="geometry"/>
                </mxCell>
                <mxCell id="pdZs4WxcZeSt5Cbc3wFs-11" style="edgeStyle=orthogonalEdgeStyle;rounded=0;orthogonalLoop=1;jettySize=auto;html=1;entryX=0.75;entryY=0;entryDx=0;entryDy=0;" parent="1" target="ne0xaH8l7VcgD0dj2SvG-3" edge="1">
                    <mxGeometry relative="1" as="geometry">
                        <Array as="points">
                            <mxPoint x="420" y="-95"/>
                            <mxPoint x="420" y="60"/>
                        </Array>
                        <mxPoint x="500" y="-94.97142857142853" as="sourcePoint"/>
                    </mxGeometry>
                </mxCell>
                <mxCell id="pdZs4WxcZeSt5Cbc3wFs-15" style="edgeStyle=orthogonalEdgeStyle;rounded=0;orthogonalLoop=1;jettySize=auto;html=1;entryX=0.5;entryY=0;entryDx=0;entryDy=0;" parent="1" source="pdZs4WxcZeSt5Cbc3wFs-5" target="ne0xaH8l7VcgD0dj2SvG-21" edge="1">
                    <mxGeometry relative="1" as="geometry">
                        <Array as="points">
                            <mxPoint x="170" y="390"/>
                        </Array>
                    </mxGeometry>
                </mxCell>
                <mxCell id="pdZs4WxcZeSt5Cbc3wFs-16" style="edgeStyle=orthogonalEdgeStyle;rounded=0;orthogonalLoop=1;jettySize=auto;html=1;entryX=0.563;entryY=0.01;entryDx=0;entryDy=0;entryPerimeter=0;" parent="1" source="pdZs4WxcZeSt5Cbc3wFs-5" target="ne0xaH8l7VcgD0dj2SvG-1" edge="1">
                    <mxGeometry relative="1" as="geometry"/>
                </mxCell>
                <mxCell id="pdZs4WxcZeSt5Cbc3wFs-17" style="edgeStyle=orthogonalEdgeStyle;rounded=0;orthogonalLoop=1;jettySize=auto;html=1;" parent="1" source="pdZs4WxcZeSt5Cbc3wFs-2" edge="1">
                    <mxGeometry relative="1" as="geometry">
                        <mxPoint x="50" y="100" as="targetPoint"/>
                    </mxGeometry>
                </mxCell>
                <mxCell id="2" value="Product_colors_imgs" style="swimlane;childLayout=stackLayout;horizontal=1;startSize=30;horizontalStack=0;rounded=1;fontSize=14;fontStyle=0;strokeWidth=2;resizeParent=0;resizeLast=1;shadow=0;dashed=0;align=center;" parent="1" vertex="1">
                    <mxGeometry x="690" y="-100" width="160" height="120" as="geometry"/>
                </mxCell>
                <mxCell id="3" value="product_id --pk&#10;color --pk&#10;imgs --pk&#10;" style="align=left;strokeColor=none;fillColor=none;spacingLeft=4;fontSize=12;verticalAlign=top;resizable=0;rotatable=0;part=1;" parent="2" vertex="1">
                    <mxGeometry y="30" width="160" height="90" as="geometry"/>
                </mxCell>
                <mxCell id="4" style="edgeStyle=none;html=1;entryX=0.548;entryY=-0.001;entryDx=0;entryDy=0;entryPerimeter=0;" parent="1" source="3" target="ne0xaH8l7VcgD0dj2SvG-6" edge="1">
                    <mxGeometry relative="1" as="geometry"/>
                </mxCell>
                <mxCell id="7" style="edgeStyle=none;html=1;entryX=0.5;entryY=0;entryDx=0;entryDy=0;" edge="1" parent="1" source="ne0xaH8l7VcgD0dj2SvG-16" target="pdZs4WxcZeSt5Cbc3wFs-6">
                    <mxGeometry relative="1" as="geometry"/>
                </mxCell>
            </root>
        </mxGraphModel>
    </diagram>
</mxfile>